<svg width="16" height="15" viewBox="0 0 16 15" fill="none" xmlns="http://www.w3.org/2000/svg">
<path d="M1 1L2.49876 1.2594L3.19265 9.52635C3.24813 10.2015 3.81233 10.7196 4.48965 10.7174H12.3502C12.9965 10.7189 13.5449 10.2433 13.6364 9.60345L14.3202 4.87803C14.3966 4.34986 14.0298 3.85988 13.5023 3.78351C13.4562 3.77702 2.73942 3.77342 2.73942 3.77342" stroke="black" stroke-width="1.5" stroke-linecap="round" stroke-linejoin="round"/>
<path d="M9.19629 6.43652H11.1944" stroke="black" stroke-width="1.5" stroke-linecap="round" stroke-linejoin="round"/>
<path fill-rule="evenodd" clip-rule="evenodd" d="M4.17372 13.2153C4.39061 13.2153 4.5657 13.3911 4.5657 13.6073C4.5657 13.8242 4.39061 14 4.17372 14C3.95683 14 3.78174 13.8242 3.78174 13.6073C3.78174 13.3911 3.95683 13.2153 4.17372 13.2153Z" fill="black" stroke="black" stroke-width="1.5" stroke-linecap="round" stroke-linejoin="round"/>
<path fill-rule="evenodd" clip-rule="evenodd" d="M12.3017 13.2153C12.5185 13.2153 12.6944 13.3911 12.6944 13.6073C12.6944 13.8242 12.5185 14 12.3017 14C12.0848 14 11.9097 13.8242 11.9097 13.6073C11.9097 13.3911 12.0848 13.2153 12.3017 13.2153Z" fill="black" stroke="black" stroke-width="1.5" stroke-linecap="round" stroke-linejoin="round"/>
</svg>
