<svg width="15" height="11" viewBox="0 0 15 11" fill="none" xmlns="http://www.w3.org/2000/svg">
<path d="M14.3536 1.30582C13.8469 1.52995 13.3096 1.67715 12.7594 1.74254C13.3393 1.39571 13.7734 0.849859 13.9806 0.206713C13.4364 0.530605 12.8397 0.757594 12.2178 0.880381C11.8001 0.433423 11.2464 0.136999 10.6428 0.037191C10.0392 -0.062617 9.41956 0.0397836 8.88018 0.328473C8.3408 0.617163 7.91191 1.07597 7.66018 1.63356C7.40845 2.19115 7.34799 2.81628 7.4882 3.41178C6.38452 3.35646 5.30481 3.06965 4.31917 2.56997C3.33352 2.07029 2.46399 1.3689 1.767 0.511357C1.52029 0.935104 1.39065 1.41681 1.39134 1.90714C1.39134 2.86953 1.88116 3.71974 2.62585 4.21752C2.18515 4.20365 1.75415 4.08464 1.36878 3.8704V3.90492C1.36891 4.54586 1.5907 5.16704 1.99655 5.66313C2.40239 6.15922 2.96731 6.49968 3.59553 6.6268C3.18643 6.73766 2.75746 6.754 2.34111 6.67459C2.51824 7.22629 2.86346 7.70878 3.32845 8.05452C3.79343 8.40025 4.3549 8.59191 4.93424 8.60267C4.35845 9.05487 3.69919 9.38916 2.99413 9.5864C2.28907 9.78365 1.55204 9.84 0.825195 9.75222C2.09401 10.5682 3.57104 11.0014 5.07959 11C10.1855 11 12.9778 6.77016 12.9778 3.10182C12.9778 2.98236 12.9744 2.86156 12.9691 2.74342C13.5126 2.35061 13.9817 1.86401 14.3543 1.30648L14.3536 1.30582Z" fill="#76A713"/>
</svg>
